<?xml version="1.0" standalone="no"?>
<!DOCTYPE svg PUBLIC "-//W3C//DTD SVG 20010904//EN"
 "http://www.w3.org/TR/2001/REC-SVG-20010904/DTD/svg10.dtd">
<svg version="1.0" xmlns="http://www.w3.org/2000/svg"
 width="500.000000pt" height="500.000000pt" viewBox="0 0 500.000000 500.000000"
 preserveAspectRatio="xMidYMid meet">

<g transform="translate(0.000000,500.000000) scale(0.100000,-0.100000)"
fill="#000000" stroke="none">
<path d="M902 3438 c-9 -9 -12 -72 -12 -229 0 -188 2 -218 16 -223 19 -7 16
-62 -3 -59 -20 4 -18 -1420 1 -1436 9 -8 76 -11 212 -9 l199 3 0 980 0 980
-200 3 c-148 2 -204 -1 -213 -10z m369 -43 c10 -46 10 -123 0 -129 -4 -3 -11
19 -14 48 -8 81 -19 96 -72 96 -24 0 -47 5 -51 11 -4 7 15 10 62 7 67 -3 69
-4 75 -33z m-123 -117 c-5 -16 -48 -24 -48 -10 0 11 17 20 38 21 8 1 12 -5 10
-11z m-202 -49 c-3 -17 -6 -67 -6 -110 0 -44 -3 -79 -7 -79 -9 0 -16 165 -8
198 9 35 29 27 21 -9z m291 -305 c-3 -3 -12 -4 -19 -1 -8 3 -5 6 6 6 11 1 17
-2 13 -5z m-197 -696 c0 -9 3 -9 12 0 7 7 27 12 45 12 45 0 92 -43 100 -93 5
-33 2 -42 -19 -62 -21 -19 -32 -22 -71 -18 -58 7 -81 -8 -65 -42 5 -12 21 -28
35 -34 34 -15 103 -14 103 2 0 7 9 13 20 14 12 1 18 -3 14 -9 -4 -6 1 -6 14 1
28 15 32 14 32 -7 0 -10 -11 -29 -25 -42 -14 -13 -25 -18 -25 -12 0 15 -50 5
-65 -12 -11 -12 -85 -16 -85 -4 0 4 -8 5 -18 3 -26 -5 -79 40 -100 83 -31 66
-14 174 34 213 15 12 17 12 9 0 -6 -11 -2 -10 16 2 28 20 39 21 39 5z m37
-174 c-3 -3 -12 -4 -19 -1 -8 3 -5 6 6 6 11 1 17 -2 13 -5z m-157 -400 c0 -61
-4 -93 -10 -89 -11 7 -14 168 -3 178 12 13 13 7 13 -89z"/>
<path d="M1050 2180 c-11 -11 -20 -33 -20 -50 0 -25 4 -30 24 -30 37 0 59 26
43 50 -6 11 -15 20 -20 20 -4 0 -5 5 -2 10 3 6 16 10 29 10 42 0 76 -62 41
-73 -11 -4 -10 -4 2 -3 26 2 28 41 4 65 -27 27 -75 27 -101 1z"/>
<path d="M991 2154 c0 -11 3 -14 6 -6 3 7 2 16 -1 19 -3 4 -6 -2 -5 -13z"/>
<path d="M992 2085 c0 -16 2 -22 5 -12 2 9 2 23 0 30 -3 6 -5 -1 -5 -18z"/>
<path d="M1000 2024 c0 -6 7 -19 16 -30 14 -18 14 -18 3 6 -14 31 -19 36 -19
24z"/>
<path d="M1060 1950 c0 -8 50 -24 56 -18 2 2 -10 9 -26 15 -17 6 -30 8 -30 3z"/>
<path d="M1976 3133 c-3 -3 -6 -374 -5 -824 0 -727 2 -818 15 -823 9 -3 105
-6 215 -6 l199 0 0 496 c0 461 -1 498 -17 510 -17 12 -17 13 -1 14 15 0 17 27
18 320 l1 321 -210 -1 c-115 -1 -212 -4 -215 -7z m208 -224 c-8 -13 -24 -1
-24 18 0 13 3 13 15 3 8 -7 12 -16 9 -21z m-174 -179 c0 -22 -4 -40 -10 -40
-5 0 -10 18 -10 40 0 22 5 40 10 40 6 0 10 -18 10 -40z m240 -6 c0 -8 -4 -12
-10 -9 -5 3 -10 10 -10 16 0 5 5 9 10 9 6 0 10 -7 10 -16z m50 -212 c0 -14
-11 -21 -26 -15 -21 8 -17 23 6 23 11 0 20 -4 20 -8z m-148 -104 l1 -53 6 50
c6 50 6 50 44 53 67 6 67 7 67 -259 0 -229 -1 -238 -20 -244 -11 -4 -18 -11
-15 -16 8 -12 -106 -12 -139 1 l-25 9 6 158 c2 87 1 190 -4 229 -11 83 -5 106
28 115 46 13 49 11 51 -43z m3 -558 c-3 -5 -15 -10 -25 -10 -10 0 -22 5 -25
10 -4 6 7 10 25 10 18 0 29 -4 25 -10z"/>
<path d="M2163 2295 c0 -22 2 -30 4 -17 2 12 2 30 0 40 -3 9 -5 -1 -4 -23z"/>
<path d="M2163 2195 c0 -22 2 -30 4 -17 2 12 2 30 0 40 -3 9 -5 -1 -4 -23z"/>
<path d="M2163 2100 c0 -25 2 -35 4 -22 2 12 2 32 0 45 -2 12 -4 2 -4 -23z"/>
<path d="M2154 2026 c-10 -26 1 -58 24 -74 13 -8 22 -10 22 -4 0 6 -9 14 -21
17 -18 6 -20 12 -14 41 6 34 -1 47 -11 20z"/>
<path d="M2523 2998 c-13 -21 -13 -652 1 -660 8 -6 8 -8 -1 -8 -8 0 -11 -95
-11 -365 0 -271 3 -363 12 -358 8 5 8 3 0 -8 -14 -18 -17 -89 -4 -89 6 0 9 -6
7 -12 -1 -10 46 -13 213 -13 l215 0 3 740 c1 407 0 750 -3 763 -5 22 -6 22
-215 22 -156 0 -211 -3 -217 -12z m127 -18 c0 -5 -9 -10 -21 -10 -13 0 -18 -4
-13 -12 5 -7 0 -9 -14 -6 -29 8 -38 -7 -47 -76 -5 -41 -3 -61 5 -66 9 -5 9
-13 2 -27 -14 -26 -15 -206 -1 -198 11 7 49 -22 49 -37 0 -14 -28 -9 -44 8
-15 14 -16 9 -16 -60 0 -59 3 -76 14 -76 8 0 16 4 18 8 2 5 22 12 45 16 35 5
41 4 37 -9 -5 -12 -2 -12 25 1 17 8 39 13 49 10 24 -8 42 -47 42 -91 0 -33 1
-34 48 -37 43 -3 47 -5 47 -28 0 -22 -5 -25 -37 -28 -56 -5 -61 -17 -48 -113
13 -94 20 -112 55 -135 25 -16 33 -48 15 -59 -12 -7 -90 63 -90 81 0 7 -4 16
-10 19 -5 3 -10 -1 -10 -10 0 -9 20 -37 45 -64 l45 -48 -28 -2 c-15 -1 -38 -3
-51 -4 -30 -2 -101 62 -106 96 -2 12 -7 47 -10 77 -9 70 -24 120 -36 120 -6 0
-7 5 -4 10 3 6 1 10 -4 10 -6 0 -11 -6 -12 -12 0 -10 -2 -10 -6 0 -2 6 -8 10
-13 7 -14 -9 -33 24 -24 42 4 10 8 23 8 28 1 6 11 9 23 7 12 -2 24 2 28 8 3 6
11 7 17 4 6 -4 9 -1 6 7 -3 8 -13 14 -24 14 -25 0 -44 19 -44 43 0 11 -6 22
-12 24 -16 6 -17 27 -16 258 2 262 1 261 30 292 26 28 88 40 88 18z m275
-1400 c3 -6 -1 -13 -10 -16 -23 -9 -285 7 -285 17 0 13 287 12 295 -1z"/>
<path d="M2711 2381 c-7 -5 -22 -6 -34 -3 -14 3 -18 1 -13 -6 4 -7 18 -12 32
-12 15 0 24 -6 24 -16 0 -12 -7 -15 -30 -12 -37 6 -53 -11 -48 -49 2 -23 9
-29 38 -33 37 -5 47 -24 49 -92 1 -20 6 -40 11 -43 8 -5 9 11 5 47 -11 96 -11
96 -52 100 -65 5 -56 57 10 58 24 0 27 4 27 35 0 39 0 38 -19 26z"/>
<path d="M367 2970 c-16 -19 -17 -71 -15 -753 l3 -732 204 -3 c142 -2 208 1
217 9 17 14 20 159 3 159 -6 0 -10 -15 -9 -32 1 -18 1 -42 1 -53 -2 -19 -3
-19 -15 -3 -7 10 -17 14 -21 10 -5 -4 -1 4 8 18 17 24 17 25 -20 56 l-38 32
24 26 c13 14 28 23 32 20 5 -3 9 4 9 15 0 11 5 23 10 26 6 3 10 -4 10 -17 0
-13 5 -30 10 -38 6 -10 9 138 9 412 0 267 -3 429 -9 433 -13 8 -13 45 0 45 7
0 10 60 9 180 -1 143 -4 184 -16 195 -12 12 -51 15 -201 15 -176 0 -189 -1
-205 -20z m281 -66 c46 -13 19 -24 -57 -24 -94 0 -171 10 -171 21 0 10 193 12
228 3z m-233 -575 c-4 -6 3 -5 15 3 18 11 23 11 27 0 4 -10 8 -10 18 -2 21 17
54 2 61 -27 4 -14 4 -54 1 -89 -7 -70 1 -82 46 -70 20 5 22 12 25 78 2 42 10
83 18 96 15 23 54 31 54 10 0 -9 3 -9 12 0 7 7 17 8 30 1 16 -9 18 -25 18
-189 0 -178 0 -180 -24 -195 -25 -17 -85 -23 -104 -11 -7 4 -12 35 -12 77 0
65 -1 69 -22 69 -19 0 -20 2 -8 10 20 13 4 13 -21 0 -15 -9 -19 -22 -19 -68 0
-70 -9 -85 -46 -80 -25 3 -30 8 -35 43 l-6 40 -2 -36 c0 -20 2 -39 6 -43 4 -3
8 -13 9 -22 2 -12 -1 -13 -11 -4 -8 7 -19 9 -25 5 -6 -4 -17 -1 -25 5 -31 26
-11 410 21 410 3 0 2 -5 -1 -11z m-15 -740 c0 -23 18 -60 34 -71 6 -5 2 -8
-11 -8 -40 0 -64 41 -47 84 9 23 24 20 24 -5z"/>
<path d="M451 2294 c0 -11 3 -14 6 -6 3 7 2 16 -1 19 -3 4 -6 -2 -5 -13z"/>
<path d="M673 2255 c0 -33 2 -45 4 -27 2 18 2 45 0 60 -2 15 -4 0 -4 -33z"/>
<path d="M451 2224 c0 -11 3 -14 6 -6 3 7 2 16 -1 19 -3 4 -6 -2 -5 -13z"/>
<path d="M441 2174 c0 -11 3 -14 6 -6 3 7 2 16 -1 19 -3 4 -6 -2 -5 -13z"/>
<path d="M660 2164 c0 -11 -6 -15 -20 -11 -11 3 -20 1 -20 -4 0 -5 11 -9 25
-9 18 0 25 5 25 20 0 11 -2 20 -5 20 -3 0 -5 -7 -5 -16z"/>
<path d="M443 2085 c0 -22 2 -30 4 -17 2 12 2 30 0 40 -3 9 -5 -1 -4 -23z"/>
<path d="M638 2093 c20 -4 22 -10 22 -63 0 -70 7 -90 29 -90 14 1 14 2 -1 11
-15 8 -18 24 -18 79 0 70 0 70 -27 69 -24 -2 -25 -2 -5 -6z"/>
<path d="M1424 2969 c-3 -6 0 -15 7 -20 10 -6 10 -9 2 -9 -10 0 -12 -157 -10
-727 l2 -728 210 0 210 0 3 558 2 557 -22 1 -23 0 23 9 c22 9 22 13 22 174 0
90 -3 171 -6 180 -5 14 -33 16 -209 16 -139 0 -206 -4 -211 -11z m376 -213 c0
-106 -3 -208 -6 -225 -7 -32 -24 -43 -24 -15 0 8 -4 12 -10 9 -6 -4 -8 5 -5
22 2 15 7 105 10 200 3 95 8 179 11 187 18 46 24 -3 24 -178z m-98 -467 c40
-21 58 -69 58 -153 0 -78 0 -79 37 -113 29 -28 34 -38 26 -51 -12 -20 -68 -35
-101 -27 l-25 6 21 22 c21 21 23 21 51 4 43 -25 51 -21 11 7 -33 23 -36 23
-62 8 -16 -9 -28 -20 -28 -24 0 -4 -21 -8 -46 -8 -27 0 -43 -4 -39 -10 6 -10
-4 -12 -67 -12 -42 0 -97 34 -99 60 -3 41 5 89 16 99 4 5 4 2 0 -6 -5 -8 6 -5
23 8 18 12 32 26 32 32 0 5 20 14 44 20 28 7 47 19 54 32 l10 22 -1 -22 c-1
-12 -13 -28 -30 -38 -15 -9 -26 -19 -24 -21 9 -9 67 31 62 44 -2 6 0 12 6 12
6 0 6 6 0 18 -18 34 38 59 67 30 20 -20 14 -38 -13 -38 -14 0 -25 -5 -25 -11
0 -7 10 -9 27 -4 37 9 38 11 27 43 -19 54 -134 35 -134 -23 0 -28 -3 -29 -31
-15 -27 15 -24 49 9 84 16 18 19 25 7 16 -47 -33 -59 -75 -29 -104 17 -18 21
-16 -56 -20 -34 -1 -35 1 -38 36 -2 31 2 41 25 58 16 11 31 20 35 20 4 1 22 7
40 14 39 17 133 19 160 5z m-209 -164 c-3 -9 -8 -14 -10 -11 -3 3 -2 9 2 15 9
16 15 13 8 -4z m287 -574 c0 -6 -46 -11 -102 -13 -116 -3 -148 -1 -148 13 0 5
55 9 125 9 71 0 125 -4 125 -9z"/>
<path d="M1640 2103 c-57 -29 -90 -71 -67 -85 24 -15 84 -8 117 15 19 12 33
25 32 30 -1 4 -2 21 -2 37 0 37 -11 38 -80 3z m55 -53 c-16 -18 -72 -37 -81
-27 -2 2 5 16 17 30 15 20 16 25 5 21 -35 -14 -13 8 27 26 l42 19 3 -25 c2
-14 -4 -34 -13 -44z"/>
<path d="M1526 2088 c-9 -12 -16 -31 -16 -42 0 -14 6 -8 20 19 22 44 20 58 -4
23z"/>
<path d="M1520 2002 c0 -13 51 -54 58 -47 3 3 3 6 1 8 -2 1 -16 13 -31 26 -16
14 -28 20 -28 13z"/>
<path d="M3257 2660 c-87 -11 -83 -24 5 -17 76 7 128 -3 128 -22 0 -5 5 -22
11 -38 6 -15 13 -66 16 -113 2 -47 5 -93 7 -102 2 -10 1 -18 -4 -18 -4 0 -11
41 -15 90 -4 50 -11 92 -15 95 -5 3 -6 13 -3 23 5 20 -14 32 -86 57 -50 17
-65 19 -56 6 3 -5 1 -13 -5 -16 -6 -4 -10 -3 -9 2 3 20 -2 27 -11 13 -6 -10
-10 -11 -10 -2 0 6 -9 12 -19 12 -11 0 -21 4 -23 10 -2 6 -35 6 -94 -2 l-90
-11 -3 -39 c-1 -21 3 -73 9 -116 5 -42 11 -90 12 -105 2 -28 3 -28 18 -9 9 11
25 22 37 26 17 6 20 3 16 -18 -4 -17 1 -27 16 -36 12 -6 26 -8 31 -5 5 3 14
-3 20 -12 10 -17 10 -16 8 2 -2 13 -11 20 -25 20 -33 1 -49 20 -33 40 31 37
86 -1 96 -67 10 -59 23 -71 62 -57 60 21 114 -10 126 -73 16 -86 36 -135 61
-148 25 -13 33 -34 16 -44 -5 -3 -20 3 -34 14 -33 26 -45 26 -22 0 10 -11 24
-20 32 -20 7 0 13 -4 13 -10 0 -5 -25 -10 -55 -10 -52 0 -56 2 -80 39 -15 23
-30 66 -37 104 -7 44 -15 64 -22 60 -6 -4 -2 3 8 15 15 18 16 22 4 22 -26 0
-49 -34 -44 -66 3 -16 8 -66 11 -111 5 -70 3 -83 -10 -83 -8 0 -15 1 -16 3 0
1 -7 38 -14 82 l-14 80 5 -75 c4 -48 11 -81 21 -92 15 -17 15 -18 -2 -18 -10
0 -27 -8 -38 -17 -11 -10 -17 -12 -13 -5 5 8 1 12 -12 12 -11 0 -22 7 -26 15
-3 8 -1 15 5 15 6 0 7 5 4 11 -4 6 -11 50 -15 97 -12 124 -31 235 -42 249 -6
7 -15 10 -20 7 -6 -4 -14 -1 -18 6 -4 7 -8 1 -8 -16 0 -16 2 -32 5 -37 2 -4 6
-37 9 -75 7 -113 62 -540 63 -494 2 66 17 49 27 -30 8 -65 12 -74 36 -86 15
-7 67 -16 115 -19 78 -6 84 -8 53 -16 -43 -11 -162 5 -195 27 -13 9 -26 26
-28 38 -2 13 -2 -6 1 -42 2 -36 6 -68 9 -72 2 -5 20 -8 39 -8 60 0 379 42 388
51 9 8 -48 569 -61 609 -2 8 -7 49 -9 90 -3 41 -9 77 -15 78 -5 2 -6 8 -3 13
6 10 -13 213 -23 239 -3 8 -6 33 -8 55 -1 22 -3 43 -4 48 -1 8 -74 7 -154 -3z
m48 -110 c-3 -5 -10 -10 -16 -10 -5 0 -9 5 -9 10 0 6 7 10 16 10 8 0 12 -4 9
-10z m-75 -140 c0 -5 -7 -10 -15 -10 -8 0 -15 5 -15 10 0 6 7 10 15 10 8 0 15
-4 15 -10z m-40 -504 c0 -2 -7 -9 -15 -16 -13 -11 -14 -10 -9 4 5 14 24 23 24
12z m45 -106 c3 -5 1 -10 -4 -10 -6 0 -11 5 -11 10 0 6 2 10 4 10 3 0 8 -4 11
-10z"/>
<path d="M3942 2363 c-5 -10 -9 -43 -10 -73 l0 -55 7 47 c8 58 32 87 66 80 30
-5 23 -22 -10 -22 -30 0 -33 -13 -37 -123 -2 -82 -11 -102 -21 -47 -3 19 -5
16 -6 -11 -1 -25 4 -39 14 -43 8 -3 15 -11 15 -18 0 -10 -2 -10 -9 1 -7 11
-10 10 -15 -5 -5 -17 -15 -19 -78 -17 -40 1 -64 -1 -53 -4 49 -13 35 -23 -30
-23 -85 0 -120 -16 -120 -52 1 -28 -16 -33 -27 -8 -6 13 -7 13 -7 -1 -1 -22
19 -37 47 -34 12 1 22 -1 22 -4 0 -3 25 -7 55 -8 30 -1 53 2 51 6 -4 7 125 2
133 -5 2 -2 3 -46 3 -99 -1 -69 2 -95 11 -95 8 0 8 -3 -2 -9 -10 -6 -12 -20
-8 -46 8 -47 8 -47 61 -52 62 -7 63 -6 68 202 1 11 -1 40 -4 65 l-6 45 118 -1
c65 -1 123 -4 129 -8 6 -4 11 -1 11 6 0 10 2 10 8 1 13 -21 41 7 43 42 2 69
-23 91 -84 74 -16 -5 -25 -4 -22 2 7 10 -48 13 -58 2 -9 -8 -64 -8 -104 1 -37
9 -35 -1 -35 188 1 65 -3 100 -11 105 -7 4 -31 9 -54 11 -32 2 -44 -1 -51 -15z
m254 -320 c-2 -3 -16 -6 -30 -7 -20 -3 -24 0 -16 9 6 7 20 11 31 8 11 -3 18
-8 15 -10z m-209 -135 c-3 -7 -5 -2 -5 12 0 14 2 19 5 13 2 -7 2 -19 0 -25z
m10 -154 c-3 -3 -12 -4 -19 -1 -8 3 -5 6 6 6 11 1 17 -2 13 -5z m14 -97 c-10
-9 -11 -8 -5 6 3 10 9 15 12 12 3 -3 0 -11 -7 -18z"/>
<path d="M3150 2252 c0 -17 4 -34 10 -37 6 -4 7 6 3 27 -8 44 -13 48 -13 10z"/>
<path d="M3931 2214 c0 -11 3 -14 6 -6 3 7 2 16 -1 19 -3 4 -6 -2 -5 -13z"/>
<path d="M3326 2175 c4 -22 10 -44 15 -50 11 -12 0 53 -13 75 -5 9 -6 0 -2
-25z"/>
<path d="M3160 2174 c0 -10 5 -26 10 -34 8 -11 9 -7 4 15 -8 37 -14 45 -14 19z"/>
<path d="M3352 2069 c6 -16 12 -28 14 -26 5 5 -13 57 -20 57 -3 0 0 -14 6 -31z"/>
<path d="M3668 2063 c7 -3 16 -2 19 1 4 3 -2 6 -13 5 -11 0 -14 -3 -6 -6z"/>
<path d="M3632 2048 c-7 -7 -12 -19 -12 -27 0 -11 5 -8 16 7 18 25 15 39 -4
20z"/>
</g>
</svg>
